<svg width="79" height="28" viewBox="0 0 79 28" fill="none" xmlns="http://www.w3.org/2000/svg">
<path d="M71.8315 26.34L71.7915 25.9C72.1248 25.7267 72.5048 25.5133 72.9315 25.26C73.3715 25.0067 73.8182 24.7267 74.2715 24.42C74.7248 24.1133 75.1382 23.8067 75.5115 23.5C75.8982 23.1933 76.2115 22.9 76.4515 22.62C76.6915 22.34 76.8115 22.0933 76.8115 21.88C76.8115 21.68 76.7182 21.4333 76.5315 21.14C76.3582 20.8467 76.0715 20.5333 75.6715 20.2C75.2715 19.8533 74.7315 19.5267 74.0515 19.22C74.1048 19.0467 74.1982 18.8067 74.3315 18.5C74.4782 18.1933 74.6382 17.8667 74.8115 17.52C74.9848 17.16 75.1515 16.8267 75.3115 16.52C75.4848 16.2133 75.6315 15.98 75.7515 15.82H75.9715C76.3448 16.0467 76.6982 16.34 77.0315 16.7C77.3782 17.06 77.6582 17.4867 77.8715 17.98C78.0982 18.4733 78.2115 19.04 78.2115 19.68C78.2115 20.1733 78.1448 20.7 78.0115 21.26C77.8782 21.82 77.6848 22.3667 77.4315 22.9C77.1915 23.42 76.9115 23.88 76.5915 24.28C76.2848 24.68 75.9515 24.9733 75.5915 25.16C75.2582 25.3333 74.7715 25.5133 74.1315 25.7C73.5048 25.9 72.7382 26.1133 71.8315 26.34Z" fill="#12372A"/>
<path d="M68.5499 22.98L68.1099 22.88C68.1765 22.5733 68.2432 22.0867 68.3099 21.42C68.3765 20.7533 68.4299 19.94 68.4699 18.98L68.6499 14.2C68.6765 13.6 68.7032 13.0733 68.7299 12.62C68.7699 12.1667 68.8432 11.72 68.9499 11.28C69.0565 10.8267 69.2165 10.3133 69.4299 9.74C69.6565 9.16666 69.9565 8.45999 70.3299 7.62L70.7499 7.77999C70.6432 8.04666 70.5499 8.52 70.4699 9.2C70.4032 9.86666 70.3365 10.74 70.2699 11.82L69.9299 17.46C69.8765 18.3133 69.7365 19.2 69.5099 20.12C69.2965 21.04 68.9765 21.9933 68.5499 22.98Z" fill="#12372A"/>
<path d="M57.1049 25.74L57.0249 25.28C57.3582 25.0933 57.7316 24.8533 58.1449 24.56C58.5582 24.2667 58.9782 23.9467 59.4049 23.6C59.8316 23.2533 60.2449 22.9067 60.6449 22.56C61.0449 22.2133 61.3982 21.8867 61.7049 21.58C62.0116 21.2733 62.2516 21.02 62.4249 20.82C62.5849 20.6333 62.7449 20.3933 62.9049 20.1C63.0782 19.7933 63.2516 19.4533 63.4249 19.08C63.5982 18.6933 63.7649 18.2867 63.9249 17.86C64.0982 17.4333 64.2649 17.0067 64.4249 16.58L65.0249 16.68C64.7716 17.7333 64.4982 18.6867 64.2049 19.54C63.9249 20.3933 63.6316 21.1467 63.3249 21.8C63.0316 22.44 62.7316 22.9867 62.4249 23.44C62.1182 23.88 61.8182 24.2133 61.5249 24.44C61.3782 24.52 61.1982 24.6 60.9849 24.68C60.7849 24.76 60.5516 24.84 60.2849 24.92C60.0316 25 59.7382 25.08 59.4049 25.16C59.0849 25.2533 58.7316 25.3467 58.3449 25.44C57.9582 25.5333 57.5449 25.6333 57.1049 25.74Z" fill="#12372A"/>
<path d="M51.1866 22.98L50.7466 22.88C50.8132 22.5733 50.8799 22.0867 50.9466 21.42C51.0132 20.7533 51.0666 19.94 51.1066 18.98L51.2866 14.2C51.3132 13.6 51.3399 13.0733 51.3666 12.62C51.4066 12.1667 51.4799 11.72 51.5866 11.28C51.6932 10.8267 51.8532 10.3133 52.0666 9.74C52.2932 9.16666 52.5932 8.45999 52.9666 7.62L53.3866 7.77999C53.2799 8.04666 53.1866 8.52 53.1066 9.2C53.0399 9.86666 52.9732 10.74 52.9066 11.82L52.5666 17.46C52.5132 18.3133 52.3732 19.2 52.1466 20.12C51.9332 21.04 51.6132 21.9933 51.1866 22.98Z" fill="#12372A"/>
<path d="M38.708 17.92C38.508 17.92 38.408 17.8333 38.408 17.66C38.408 17.5533 38.4613 17.3933 38.568 17.18C38.6613 16.98 38.7946 16.7467 38.968 16.48C39.1546 16.2133 39.3613 15.94 39.588 15.66C39.828 15.3667 40.0746 15.1 40.328 14.86C40.5946 14.6067 40.9746 14.3067 41.468 13.96C41.9746 13.6 42.5946 13.18 43.328 12.7C43.608 12.5267 43.828 12.3667 43.988 12.22C44.1613 12.06 44.2946 11.8533 44.388 11.6C44.4813 11.3467 44.5346 10.9733 44.548 10.48L44.688 6.33999C44.7013 5.87332 44.7413 5.40666 44.808 4.93999C44.8746 4.45999 44.9613 3.97999 45.068 3.49999C45.188 3.01999 45.3346 2.53332 45.508 2.03999C45.6813 1.54666 45.888 1.03999 46.128 0.519989L46.548 0.67999C46.4946 0.933323 46.4413 1.27999 46.388 1.71999C46.348 2.14666 46.3146 2.66666 46.288 3.27999C46.2613 3.94666 46.2346 4.51999 46.208 4.99999C46.1946 5.46666 46.1746 5.88666 46.148 6.25999C46.1346 6.63332 46.108 6.99999 46.068 7.35999C46.0413 7.71999 46.008 8.11999 45.968 8.55999C45.888 9.35999 45.748 10.1267 45.548 10.86C45.3613 11.5933 45.0613 12.2533 44.648 12.84C44.448 13.12 44.2146 13.3867 43.948 13.64C43.6946 13.88 43.3946 14.0933 43.048 14.28C42.5146 14.5733 42.048 14.84 41.648 15.08C41.2613 15.32 40.9546 15.54 40.728 15.74C40.2346 16.18 39.8213 16.7067 39.488 17.32C39.3946 17.52 39.2813 17.6667 39.148 17.76C39.0146 17.8667 38.868 17.92 38.708 17.92Z" fill="#12372A"/>
<path d="M36.6953 25C36.4153 25 36.2087 24.9 36.0753 24.7C35.9287 24.5 35.8553 24.22 35.8553 23.86C35.8553 23.42 35.9353 23.0667 36.0953 22.8C36.242 22.52 36.4287 22.3067 36.6553 22.16C36.8153 22.0533 36.982 21.9733 37.1553 21.92C37.342 21.8667 37.522 21.84 37.6953 21.84C38.322 21.84 38.9887 21.7733 39.6953 21.64C40.4153 21.4933 41.102 21.2533 41.7553 20.92C42.422 20.5733 42.982 20.1067 43.4353 19.52C43.182 19.5067 42.8687 19.48 42.4953 19.44C42.122 19.4 41.722 19.3467 41.2953 19.28C40.8687 19.2 40.4487 19.12 40.0353 19.04C39.622 18.9467 39.2487 18.8533 38.9153 18.76C38.5953 18.6533 38.342 18.5533 38.1553 18.46L37.9953 18.26C38.022 18.1533 38.0753 18 38.1553 17.8C38.2353 17.5867 38.3287 17.3733 38.4353 17.16C38.5553 16.9333 38.682 16.74 38.8153 16.58C38.962 16.42 39.102 16.34 39.2353 16.34C39.3287 16.34 39.422 16.3667 39.5153 16.42C39.622 16.46 39.6753 16.5333 39.6753 16.64V16.72C40.0753 16.8533 40.5687 16.9867 41.1553 17.12C41.7553 17.2533 42.362 17.3733 42.9753 17.48C43.5887 17.5733 44.1153 17.6467 44.5553 17.7L45.3753 17.8L45.4153 18.06C45.082 18.5667 44.742 19.08 44.3953 19.6C44.0487 20.1067 43.6753 20.6133 43.2753 21.12C42.7153 21.8133 42.1153 22.46 41.4753 23.06C40.8487 23.6467 40.142 24.12 39.3553 24.48C38.582 24.8267 37.6953 25 36.6953 25Z" fill="#12372A"/>
<path d="M28.5092 25.74L28.4692 25.3C29.3092 24.8467 30.0959 24.3867 30.8292 23.92C31.5626 23.44 32.2026 22.94 32.7492 22.42C33.3092 21.8867 33.7292 21.3133 34.0092 20.7C34.2092 20.2733 34.4026 19.74 34.5892 19.1C34.7759 18.46 34.9759 17.7333 35.1892 16.92L35.7692 17C35.7026 17.4667 35.6426 17.8333 35.5892 18.1C35.5492 18.3533 35.5226 18.5533 35.5092 18.7C35.4959 18.8333 35.4892 18.9533 35.4892 19.06C35.4892 19.9133 35.6759 20.5933 36.0492 21.1C36.4359 21.5933 36.9759 21.84 37.6692 21.84C37.9892 21.84 38.2159 21.96 38.3492 22.2C38.4826 22.4267 38.5492 22.6867 38.5492 22.98C38.5492 23.4867 38.4426 23.8867 38.2292 24.18C38.0292 24.4733 37.7826 24.6867 37.4892 24.82C37.2092 24.94 36.9426 25 36.6892 25C36.1026 25 35.6292 24.86 35.2692 24.58C34.9092 24.2867 34.6492 23.9267 34.4892 23.5C34.3292 23.06 34.2492 22.62 34.2492 22.18H34.2092C34.1026 22.4867 33.9626 22.7933 33.7892 23.1C33.6292 23.3933 33.4426 23.6867 33.2292 23.98C33.0159 24.26 32.7759 24.5467 32.5092 24.84C32.3626 24.9333 32.1759 25.02 31.9492 25.1C31.7226 25.1933 31.4492 25.2733 31.1292 25.34C30.8092 25.4067 30.4292 25.4733 29.9892 25.54C29.5626 25.6067 29.0692 25.6733 28.5092 25.74Z" fill="#12372A"/>
<path d="M22.6719 19C22.5653 19 22.4453 18.94 22.3119 18.82C22.1653 18.7 22.0919 18.5 22.0919 18.22C22.0919 17.8067 22.2253 17.48 22.4919 17.24C22.7453 17 23.0253 16.88 23.3319 16.88C23.7319 16.88 24.0453 16.8 24.2719 16.64C24.4986 16.48 24.6986 16.2333 24.8719 15.9L25.2919 15.98C25.1186 16.7133 24.8986 17.3067 24.6319 17.76C24.3653 18.2 24.0653 18.52 23.7319 18.72C23.3986 18.9067 23.0453 19 22.6719 19Z" fill="#12372A"/>
<path d="M20.6436 27.96C20.457 27.76 20.2703 27.5733 20.0836 27.4C19.8836 27.2267 19.697 27.06 19.5236 26.9C19.337 26.74 19.157 26.5933 18.9836 26.46V26.28C19.0636 26.16 19.1836 26 19.3436 25.8C19.5036 25.6133 19.677 25.4133 19.8636 25.2C20.037 25 20.2036 24.82 20.3636 24.66C20.5236 24.5133 20.6436 24.42 20.7236 24.38H20.9036C21.237 24.58 21.517 24.7667 21.7436 24.94C21.9703 25.1133 22.1436 25.2933 22.2636 25.48C22.5036 25.1867 22.7703 24.88 23.0636 24.56C23.357 24.2533 23.5636 24.0667 23.6836 24H23.8436C24.377 24.3333 24.7703 24.6267 25.0236 24.88C25.2903 25.1467 25.4236 25.4133 25.4236 25.68C25.4236 25.9333 25.2903 26.2133 25.0236 26.52C24.757 26.84 24.357 27.1933 23.8236 27.58H23.6436C23.417 27.3533 23.197 27.14 22.9836 26.94C22.7703 26.7533 22.5636 26.58 22.3636 26.42C22.177 26.8467 21.6636 27.36 20.8236 27.96H20.6436Z" fill="#12372A"/>
<path d="M5.90003 25.34C4.8467 25.34 3.8867 25.24 3.02003 25.04C2.15337 24.8533 1.46003 24.5067 0.940034 24C0.420034 23.48 0.160034 22.7467 0.160034 21.8C0.160034 20.9867 0.326701 20.0133 0.660034 18.88L1.26003 18.98C1.2467 19.1 1.24003 19.2133 1.24003 19.32C1.24003 19.4267 1.24003 19.5267 1.24003 19.62C1.24003 20.1267 1.34003 20.54 1.54003 20.86C1.74003 21.1667 2.0467 21.4133 2.46003 21.6C2.95337 21.8 3.59337 21.9267 4.38003 21.98C5.1667 22.0333 6.11337 22.06 7.22003 22.06C8.14003 22.06 9.0867 22.0067 10.06 21.9C11.0334 21.7933 11.98 21.6467 12.9 21.46C13.8334 21.26 14.6934 21.0333 15.48 20.78C16.28 20.5267 16.96 20.26 17.52 19.98C18.0934 19.6867 18.6267 19.3467 19.12 18.96C19.6134 18.56 19.9934 18.1867 20.26 17.84C20.3667 17.6933 20.4734 17.5467 20.58 17.4C20.7 17.2533 20.8134 17.1067 20.92 16.96C21.04 16.8 21.1667 16.68 21.3 16.6C21.4467 16.52 21.6067 16.48 21.78 16.48C22.0467 16.48 22.2934 16.5467 22.52 16.68C22.76 16.8133 23.0334 16.88 23.34 16.88C23.5267 16.88 23.6667 16.96 23.76 17.12C23.8667 17.28 23.92 17.46 23.92 17.66C23.92 18.1 23.78 18.4333 23.5 18.66C23.2334 18.8867 22.96 19 22.68 19C22.4134 19 22.18 18.96 21.98 18.88C21.7934 18.8 21.6334 18.7267 21.5 18.66C21.3667 18.58 21.2334 18.54 21.1 18.54C20.9667 18.54 20.8334 18.6067 20.7 18.74C20.5667 18.8733 20.3867 19.1267 20.16 19.5C19.6534 20.3533 19.1134 21.08 18.54 21.68C17.98 22.28 17.3867 22.7533 16.76 23.1C16.0534 23.4867 15.2534 23.8267 14.36 24.12C13.4667 24.4 12.5334 24.6333 11.56 24.82C10.6134 24.9933 9.65337 25.12 8.68003 25.2C7.7067 25.2933 6.78003 25.34 5.90003 25.34Z" fill="#12372A"/>
<path d="M9.35458 15.52C9.16791 15.32 8.98125 15.14 8.79458 14.98C8.59458 14.8067 8.40791 14.64 8.23458 14.48C8.04791 14.32 7.86791 14.1733 7.69458 14.04V13.86C7.78791 13.7267 7.91458 13.5667 8.07458 13.38C8.23458 13.18 8.40791 12.98 8.59458 12.78C8.76791 12.58 8.93458 12.4067 9.09458 12.26C9.24125 12.1 9.35458 11.9933 9.43458 11.94H9.61458C9.96125 12.1533 10.2479 12.3533 10.4746 12.54C10.6879 12.7133 10.8546 12.8867 10.9746 13.06C11.2012 12.78 11.4612 12.4867 11.7546 12.18C12.0479 11.86 12.2612 11.66 12.3946 11.58H12.5546C13.0879 11.9133 13.4812 12.2133 13.7346 12.48C14.0012 12.7333 14.1346 12.9933 14.1346 13.26C14.1346 13.5133 14.0012 13.8 13.7346 14.12C13.4679 14.4267 13.0679 14.7733 12.5346 15.16H12.3546C12.1279 14.9333 11.9079 14.7267 11.6946 14.54C11.4812 14.34 11.2812 14.16 11.0946 14C10.8812 14.4267 10.3612 14.9333 9.53458 15.52H9.35458ZM10.7346 12.04C10.6279 11.92 10.4612 11.7533 10.2346 11.54C9.99458 11.3267 9.77458 11.1333 9.57458 10.96C9.36125 10.7733 9.22791 10.66 9.17458 10.62V10.46C9.37458 10.18 9.59458 9.91335 9.83458 9.66001C10.0612 9.40668 10.2746 9.19335 10.4746 9.02001C10.6746 8.83335 10.8012 8.72668 10.8546 8.70001H10.9946C11.5279 9.07335 11.9079 9.37335 12.1346 9.60001C12.3612 9.81335 12.4746 10.02 12.4746 10.22C12.4746 10.4333 12.3479 10.68 12.0946 10.96C11.8546 11.24 11.4612 11.6 10.9146 12.04H10.7346Z" fill="#12372A"/>
</svg>
