<svg width="198" height="70" viewBox="0 0 198 70" fill="none" xmlns="http://www.w3.org/2000/svg">
<path d="M22.9915 38.592C22.3835 38.016 21.8555 37.52 21.4075 37.104C20.9275 36.688 20.4955 36.304 20.1115 35.952C19.6955 35.6 19.2795 35.264 18.8635 34.944V34.512C19.0875 34.16 19.4075 33.744 19.8235 33.264C20.2075 32.784 20.6395 32.304 21.1195 31.824C21.5675 31.312 21.9835 30.864 22.3675 30.48C22.7515 30.096 23.0235 29.84 23.1835 29.712H23.6635C24.4635 30.224 25.1355 30.704 25.6795 31.152C26.1915 31.568 26.5915 31.984 26.8795 32.4C27.4555 31.664 28.0955 30.944 28.7995 30.24C29.5035 29.504 29.9995 29.04 30.2875 28.848H30.7195C32.0635 29.68 33.0395 30.416 33.6475 31.056C34.2875 31.696 34.6075 32.352 34.6075 33.024C34.6075 33.696 34.2395 34.432 33.5035 35.232C32.7675 36.032 31.7915 36.864 30.5755 37.728H30.1435C29.5675 37.152 29.0235 36.656 28.5115 36.24C28.0315 35.792 27.5835 35.376 27.1675 34.992C26.5915 36.048 25.3275 37.248 23.3755 38.592H22.9915ZM26.3515 30.096C26.0315 29.776 25.6315 29.392 25.1515 28.944C24.6715 28.496 24.2075 28.08 23.7595 27.696C23.2795 27.28 22.8955 26.944 22.6075 26.688V26.304C23.0235 25.728 23.5035 25.136 24.0475 24.528C24.5915 23.92 25.1195 23.392 25.6315 22.944C26.1115 22.496 26.4315 22.208 26.5915 22.08H26.9755C28.2875 22.976 29.1995 23.696 29.7115 24.24C30.2555 24.752 30.5275 25.248 30.5275 25.728C30.5275 26.24 30.2235 26.832 29.6155 27.504C29.0395 28.176 28.0955 29.04 26.7835 30.096H26.3515ZM14.944 62.96C12.256 62.96 9.824 62.672 7.648 62.096C5.504 61.552 3.792 60.608 2.512 59.264C1.264 57.888 0.64 56.016 0.64 53.648C0.64 51.44 1.072 48.896 1.936 46.016L3.472 46.256C3.44 46.544 3.408 46.832 3.376 47.12C3.376 47.376 3.376 47.68 3.376 48.032C3.376 49.312 3.648 50.352 4.192 51.152C4.736 51.952 5.552 52.576 6.64 53.024C7.856 53.472 9.408 53.776 11.296 53.936C13.216 54.096 15.472 54.176 18.064 54.176C20.432 54.176 22.816 54.048 25.216 53.792C27.648 53.536 30 53.184 32.272 52.736C34.544 52.256 36.672 51.712 38.656 51.104C40.64 50.496 42.368 49.84 43.84 49.136C45.152 48.496 46.384 47.744 47.536 46.88C48.688 46.016 49.632 45.168 50.368 44.336C50.688 43.952 51.008 43.568 51.328 43.184C51.648 42.768 51.968 42.352 52.288 41.936C52.704 41.392 53.072 41.008 53.392 40.784C53.744 40.56 54.144 40.448 54.592 40.448C55.232 40.448 55.856 40.608 56.464 40.928C57.072 41.248 57.808 41.408 58.672 41.408C59.184 41.408 59.568 41.648 59.824 42.128C60.08 42.608 60.208 43.216 60.208 43.952C60.208 45.264 59.872 46.24 59.2 46.88C58.56 47.52 57.84 47.84 57.04 47.84C56.208 47.84 55.52 47.728 54.976 47.504C54.432 47.248 53.968 47.008 53.584 46.784C53.232 46.56 52.864 46.448 52.48 46.448C52.16 46.448 51.856 46.592 51.568 46.88C51.28 47.168 50.912 47.664 50.464 48.368C49.024 50.64 47.584 52.528 46.144 54.032C44.704 55.504 43.2 56.672 41.632 57.536C40 58.432 38.128 59.232 36.016 59.936C33.904 60.608 31.648 61.168 29.248 61.616C26.912 62.064 24.528 62.4 22.096 62.624C19.664 62.848 17.28 62.96 14.944 62.96ZM52.4759 69.648C51.8679 69.04 51.3399 68.528 50.8919 68.112C50.4119 67.696 49.9799 67.312 49.5959 66.96C49.1799 66.608 48.7639 66.272 48.3479 65.952V65.52C48.5399 65.2 48.8439 64.8 49.2599 64.32C49.6439 63.84 50.0599 63.344 50.5079 62.832C50.9559 62.32 51.3879 61.872 51.8039 61.488C52.1879 61.104 52.4759 60.864 52.6679 60.768H53.0999C53.8999 61.248 54.5719 61.696 55.1159 62.112C55.6599 62.56 56.0759 62.992 56.3639 63.408C56.9719 62.672 57.6119 61.936 58.2839 61.2C58.9879 60.496 59.4839 60.048 59.7719 59.856H60.1559C61.4679 60.688 62.4439 61.424 63.0839 62.064C63.7559 62.704 64.0919 63.36 64.0919 64.032C64.0919 64.704 63.7239 65.44 62.9879 66.24C62.2519 67.04 61.2759 67.872 60.0599 68.736H59.6279C59.0519 68.16 58.5079 67.648 57.9959 67.2C57.5159 66.784 57.0519 66.384 56.6039 66C56.0919 67.056 54.8439 68.272 52.8599 69.648H52.4759ZM57.0156 48C56.6636 48 56.3116 47.776 55.9596 47.328C55.5756 46.88 55.3836 46.144 55.3836 45.12C55.3836 43.936 55.7196 43.056 56.3916 42.48C57.0316 41.872 57.7676 41.568 58.5996 41.568C59.6236 41.568 60.4396 41.376 61.0476 40.992C61.6876 40.576 62.2476 39.888 62.7276 38.928L63.8316 39.168C63.4156 41.312 62.8716 43.04 62.1996 44.352C61.5276 45.664 60.7436 46.608 59.8476 47.184C58.9836 47.728 58.0396 48 57.0156 48ZM73.2272 64.064L73.0352 62.96C75.1472 61.776 77.1473 60.56 79.0353 59.312C80.9553 58.064 82.6353 56.752 84.0753 55.376C85.5473 54 86.6193 52.544 87.2913 51.008C87.8033 49.952 88.2833 48.608 88.7313 46.976C89.2113 45.344 89.7233 43.456 90.2673 41.312L91.8033 41.504C91.6113 42.752 91.4513 43.728 91.3233 44.432C91.2273 45.104 91.1633 45.616 91.1313 45.968C91.0993 46.32 91.0833 46.624 91.0833 46.88C91.0833 48.928 91.5793 50.512 92.5713 51.632C93.5633 52.752 94.8433 53.312 96.4113 53.312C97.1793 53.312 97.7233 53.632 98.0433 54.272C98.3633 54.912 98.5233 55.712 98.5233 56.672C98.5233 57.888 98.2993 58.896 97.8513 59.696C97.4033 60.464 96.8433 61.04 96.1713 61.424C95.4993 61.808 94.7953 62 94.0593 62C92.6513 62 91.4993 61.648 90.6033 60.944C89.7393 60.208 89.0993 59.296 88.6833 58.208C88.2993 57.088 88.1073 55.936 88.1073 54.752H87.9633C87.6753 55.616 87.3073 56.48 86.8593 57.344C86.4113 58.176 85.9153 58.96 85.3713 59.696C84.8593 60.432 84.3153 61.088 83.7393 61.664C83.3553 61.888 82.8113 62.112 82.1073 62.336C81.4033 62.592 80.5873 62.816 79.6593 63.008C78.7313 63.2 77.7073 63.376 76.5873 63.536C75.4993 63.728 74.3792 63.904 73.2272 64.064ZM94.0938 62C93.4537 62 92.9577 61.712 92.6057 61.136C92.2217 60.56 92.0297 59.696 92.0297 58.544C92.0297 57.488 92.1897 56.624 92.5098 55.952C92.8297 55.248 93.2457 54.688 93.7577 54.272C94.1737 53.952 94.6058 53.712 95.0538 53.552C95.5338 53.392 96.0138 53.312 96.4938 53.312C98.4458 53.312 100.334 53.12 102.158 52.736C103.982 52.32 105.646 51.712 107.15 50.912C108.654 50.112 109.918 49.104 110.942 47.888C110.462 47.856 109.758 47.808 108.83 47.744C107.902 47.68 106.862 47.584 105.71 47.456C104.59 47.296 103.47 47.136 102.35 46.976C101.23 46.816 100.238 46.64 99.3738 46.448C98.5098 46.224 97.8858 46 97.5018 45.776L97.1658 45.248C97.3578 44.544 97.5818 43.872 97.8378 43.232C98.0938 42.56 98.3658 41.952 98.6538 41.408C98.9738 40.864 99.2938 40.432 99.6138 40.112C99.9338 39.792 100.222 39.632 100.478 39.632C100.702 39.632 100.926 39.696 101.15 39.824C101.406 39.92 101.534 40.096 101.534 40.352V40.544C102.59 40.832 103.838 41.104 105.278 41.36C106.718 41.616 108.142 41.84 109.55 42.032C110.958 42.224 112.11 42.368 113.006 42.464L116.174 42.752L116.222 43.52C115.294 44.992 114.35 46.432 113.39 47.84C112.462 49.248 111.502 50.608 110.51 51.92C109.102 53.68 107.598 55.344 105.998 56.912C104.398 58.448 102.622 59.68 100.67 60.608C98.7178 61.536 96.5258 62 94.0938 62ZM99.2054 43.256C98.7254 43.256 98.4854 43.032 98.4854 42.584C98.4854 42.328 98.6454 41.896 98.9654 41.288C99.2534 40.712 99.6694 40.04 100.213 39.272C100.757 38.504 101.413 37.736 102.181 36.968C102.949 36.168 103.797 35.448 104.725 34.808C105.621 34.168 106.613 33.48 107.701 32.744C108.789 32.008 109.989 31.192 111.301 30.296C111.845 29.944 112.277 29.592 112.597 29.24C112.949 28.856 113.221 28.376 113.413 27.8C113.605 27.192 113.717 26.376 113.749 25.352L114.085 15.176C114.149 13.8 114.245 12.52 114.373 11.336C114.533 10.12 114.741 8.936 114.997 7.784C115.253 6.632 115.605 5.448 116.053 4.232C116.533 2.984 117.109 1.624 117.781 0.151999L118.837 0.535997C118.677 1.144 118.517 2.088 118.357 3.368C118.197 4.616 118.085 6.056 118.021 7.688C117.957 9.096 117.893 10.344 117.829 11.432C117.765 12.52 117.701 13.528 117.637 14.456C117.605 15.384 117.541 16.312 117.445 17.24C117.381 18.136 117.317 19.096 117.253 20.12C117.061 21.976 116.773 23.768 116.389 25.496C116.005 27.192 115.397 28.744 114.565 30.152C114.053 31.112 113.381 31.992 112.549 32.792C111.749 33.56 110.741 34.248 109.525 34.856C108.341 35.464 107.285 36.04 106.357 36.584C105.461 37.128 104.725 37.656 104.149 38.168C102.933 39.192 101.957 40.392 101.221 41.768C100.997 42.216 100.709 42.568 100.357 42.824C100.037 43.112 99.6534 43.256 99.2054 43.256ZM129.621 57.152L128.517 56.912C128.645 56.208 128.805 55.04 128.997 53.408C129.189 51.776 129.333 49.648 129.429 47.024L129.909 34.784C130.005 33.216 130.101 31.856 130.197 30.704C130.293 29.552 130.469 28.432 130.725 27.344C131.013 26.224 131.413 25.008 131.925 23.696C132.437 22.352 133.125 20.736 133.989 18.848L135.045 19.232C134.789 19.904 134.565 21.056 134.373 22.688C134.181 24.288 134.005 26.464 133.845 29.216L133.029 42.992C132.901 45.296 132.549 47.648 131.973 50.048C131.429 52.416 130.645 54.784 129.621 57.152ZM143.965 64.448L143.725 63.344C144.525 62.832 145.469 62.192 146.557 61.424C147.645 60.624 148.765 59.76 149.917 58.832C151.069 57.872 152.189 56.912 153.277 55.952C154.397 54.992 155.373 54.08 156.205 53.216C157.069 52.352 157.725 51.616 158.173 51.008C158.621 50.4 159.037 49.744 159.421 49.04C159.837 48.304 160.237 47.52 160.621 46.688C161.037 45.824 161.437 44.896 161.821 43.904C162.205 42.912 162.605 41.856 163.021 40.736L164.557 40.976C164.013 43.248 163.405 45.424 162.733 47.504C162.061 49.584 161.341 51.488 160.573 53.216C159.805 54.944 159.021 56.448 158.221 57.728C157.421 59.008 156.621 59.984 155.821 60.656C155.501 60.848 155.021 61.072 154.381 61.328C153.773 61.584 153.069 61.84 152.269 62.096C151.469 62.384 150.589 62.656 149.629 62.912C148.701 63.2 147.741 63.472 146.749 63.728C145.789 63.984 144.861 64.224 143.965 64.448ZM172.746 57.152L171.642 56.912C171.77 56.208 171.93 55.04 172.122 53.408C172.314 51.776 172.458 49.648 172.554 47.024L173.034 34.784C173.13 33.216 173.226 31.856 173.322 30.704C173.418 29.552 173.594 28.432 173.85 27.344C174.138 26.224 174.538 25.008 175.05 23.696C175.562 22.352 176.25 20.736 177.114 18.848L178.17 19.232C177.914 19.904 177.69 21.056 177.498 22.688C177.306 24.288 177.13 26.464 176.97 29.216L176.154 42.992C176.026 45.296 175.674 47.648 175.098 50.048C174.554 52.416 173.77 54.784 172.746 57.152ZM180.529 65.744L180.337 64.64C181.521 64 182.721 63.328 183.937 62.624C185.185 61.92 186.369 61.184 187.489 60.416C188.641 59.616 189.665 58.848 190.561 58.112C191.457 57.376 192.161 56.688 192.673 56.048C193.217 55.376 193.489 54.8 193.489 54.32C193.489 53.872 193.249 53.296 192.769 52.592C192.321 51.888 191.553 51.136 190.465 50.336C189.409 49.504 187.953 48.688 186.097 47.888C186.257 47.344 186.513 46.656 186.865 45.824C187.217 44.96 187.617 44.064 188.065 43.136C188.513 42.176 188.945 41.312 189.361 40.544C189.777 39.744 190.129 39.152 190.417 38.768H190.993C192.081 39.376 193.073 40.16 193.969 41.12C194.897 42.048 195.633 43.168 196.177 44.48C196.753 45.76 197.041 47.216 197.041 48.848C197.041 50.256 196.849 51.68 196.465 53.12C196.081 54.56 195.569 55.936 194.929 57.248C194.289 58.528 193.585 59.632 192.817 60.56C192.049 61.488 191.281 62.16 190.513 62.576C189.713 62.96 188.449 63.424 186.721 63.968C184.993 64.544 182.929 65.136 180.529 65.744Z" fill="white"/>
</svg>
